<svg xmlns="http://www.w3.org/2000/svg" viewBox="0 0 24 24" fill="currentColor">
	<path d="M3.6 5h2.2c.3 0 .5.2.5.5V10c0 .3.2.5.5.5H9c.3 0 .5-.2.5-.5V5.5c0-.3.2-.5.5-.5h2.2c.3 0 .5.2.5.5v13c0 .3-.2.5-.5.5H10c-.3 0-.5-.2-.5-.5v-4.6c0-.3-.2-.5-.5-.5H6.8c-.3 0-.5.2-.5.5v4.6c0 .3-.2.5-.5.5H3.6c-.3 0-.5-.2-.5-.5v-13c0-.3.2-.5.5-.5zM14.3 16.6h1.5c.3 0 .5-.2.5-.5V8.2c0-.3-.3-.6-.6-.5l-1 .3c-.3.1-.6-.1-.6-.5V6.1c0-.2.1-.4.4-.5l1.7-.6H17.9c.3 0 .5.2.5.5v10.6c0 .3.2.5.5.5h1.5c.3 0 .5.2.5.5v1.4c0 .3-.2.5-.5.5h-6.1c-.3 0-.5-.2-.5-.5v-1.4c0-.3.2-.5.5-.5z" />
</svg>
