<svg xmlns="http://www.w3.org/2000/svg" viewBox="0 0 24 24" fill="currentColor">
	<path d="M3.6 5h2.2c.3 0 .5.2.5.5V10c0 .3.2.5.5.5H9c.3 0 .5-.2.5-.5V5.5c0-.3.2-.5.5-.5h2.2c.3 0 .5.2.5.5v13c0 .3-.2.5-.5.5H10c-.3 0-.5-.2-.5-.5v-4.6c0-.3-.2-.5-.5-.5H6.8c-.3 0-.5.2-.5.5v4.6c0 .3-.2.5-.5.5H3.6c-.3 0-.5-.2-.5-.5v-13c0-.3.2-.5.5-.5zM16.8 16.6h3.6c.3 0 .5.2.5.5v1.4c0 .3-.2.5-.5.5h-6.1c-.3 0-.5-.2-.5-.5v-1.7c0-.4.4-.7.4-.8l.8-1c1.4-1.9 2.3-3.1 2.6-3.5.4-.5.6-1 .8-1.4s.2-.8.2-1.2c0-.6-.2-1.1-.5-1.4-.3-.3-.7-.5-1.3-.5-.4 0-.8.1-1.3.3-.5.2-.7.3-.9.5-.2.1-.4.2-.5.1-.1-.2-.1-.5-.1-.7V5.8c.1-.1.1-.4.3-.5.4-.2.9-.3 1.3-.4.5-.1 1-.2 1.5-.2 1.2 0 2.1.3 2.8 1 .7.7 1 1.6 1 2.8 0 .6-.1 1.1-.2 1.5-.1.5-.4 1-.8 1.6-.3.4-1 1.4-2.2 2.9-.4.6-.8 1-1.1 1.4-.2.4 0 .7.2.7z" />
</svg>
