<svg xmlns="http://www.w3.org/2000/svg" viewBox="0 0 24 24" fill="currentColor">
	<path d="M3.6 5h2.2c.3 0 .5.2.5.5V10c0 .3.2.5.5.5H9c.3 0 .5-.2.5-.5V5.5c0-.3.2-.5.5-.5h2.2c.3 0 .5.2.5.5v13c0 .3-.2.5-.5.5H10c-.3 0-.5-.2-.5-.5v-4.6c0-.3-.2-.5-.5-.5H6.8c-.3 0-.5.2-.5.5v4.6c0 .3-.2.5-.5.5H3.6c-.3 0-.5-.2-.5-.5v-13c0-.3.2-.5.5-.5zM16.9 12.7s-1 .2-1.2 0c-.4-.4-.4-2 0-2.4.2-.2 1.2 0 1.2 0 .6 0 1-.1 1.3-.4s.5-.7.5-1.1c0-.5-.2-.9-.5-1.2s-.7-.4-1.3-.4c-.4 0-.9.1-1.4.2-.5.1-.9.3-1.1.4-.2.1-.2 0-.3 0-.1-.2-.1-.4-.1-.4V5.7c.1-.1.1-.4.3-.5l1.2-.3c.5-.1 1-.2 1.4-.2 1.2 0 2.1.3 2.8 1 .7.6 1 1.5 1 2.7 0 .8-.2 1.5-.6 2-.4.5-.9.9-1.6 1 .8.2 1.4.6 1.8 1.2.4.6.6 1.4.6 2.5 0 1.4-.3 2.4-1 3.1s-1.7 1.1-3 1.1c-.6 0-1.1-.1-1.7-.2-.4-.1-.9-.2-1.3-.4-.2-.1-.3-.3-.3-.5v-1.9s0-.1.1-.2c.1 0 .1-.1.2 0 .2.1.7.3 1.2.5.5.1 1 .2 1.7.2.6 0 1.1-.2 1.4-.5.4-.3.5-.8.5-1.4 0-.7-.2-1.3-.5-1.7-.2-.3-.7-.5-1.3-.5z" />
</svg>
